<svg xmlns="http://www.w3.org/2000/svg" viewBox="0 0 32.79 26.39"><path d="M20.8 7.27h1l2.85-2.85.14-1.21A12.81 12.81 0 0 0 6.71 4.33 12.93 12.93 0 0 0 4 9.46a1.5 1.5 0 0 1 1-.06l5.7-.94s.29-.48.44-.45a7.1 7.1 0 0 1 9.73-.74z" fill="#ea4335"/><path d="M28.71 9.46a12.77 12.77 0 0 0-3.87-6.24l-4 4a7.08 7.08 0 0 1 2.61 5.64v.71a3.56 3.56 0 1 1 0 7.12h-7.12l-.71.72v4.27l.71.71h7.12a9.26 9.26 0 0 0 5.26-16.93z" fill="#4285f4"/><path d="M9.2 26.35h7.12v-5.7H9.2a3.61 3.61 0 0 1-1.47-.32l-1 .31-2.87 2.85-.25 1a9.32 9.32 0 0 0 5.59 1.86z" fill="#34a853"/><path d="M9.2 7.86a9.26 9.26 0 0 0-5.59 16.6l4.13-4.13a3.56 3.56 0 0 1 2.94-6.49 3.49 3.49 0 0 1 1.77 1.78l4.13-4.13A9.22 9.22 0 0 0 9.2 7.86z" fill="#fbbc05"/></svg>