<svg xmlns="http://www.w3.org/2000/svg" viewBox="0 0 66 44"><g fill="#0071c5" fill-rule="evenodd"><path d="M54 11h-3v15.38c0 1.8.76 3.37 3 3.62V11m-41 5h-3v10.29c0 1.85.76 3.46 3 3.71V16m-3-2h3v-3h-3zm24 16a3.67 3.67 0 0 1-4-3.82V13h3.42v3.64H36v2.74h-2.58V26a1.06 1.06 0 0 0 1.19 1.21H36V30h-2m9.16-11.16a2.58 2.58 0 0 0-2.43 1.42 3.65 3.65 0 0 0-.33 1.47h5.23c-.09-1.47-.75-2.89-2.49-2.89zm-2.76 5.23a2.83 2.83 0 0 0 3 3 3.82 3.82 0 0 0 3.12-1.29l2.09 2A6.63 6.63 0 0 1 43.37 30C40.12 30 37 28.21 37 23c0-4.47 2.72-7 6.29-7S49 19 49 22.83v1.24zm-18.2-5.41c1 0 1.41.47 1.41 1.25V29H27v-9.11A3.65 3.65 0 0 0 23 16h-7v13h3.39V18.66h2.81m35.59-6.55c0-.18-.1-.24-.35-.24h-.23v.52h.23c.25 0 .35-.08.35-.25zm.37 1.29h-.28a.08.08 0 0 1-.06 0l-.38-.65h-.17v.65a.07.07 0 0 1-.07.07h-.3s-.06 0-.06-.07v-1.69c0-.1 0-.14.11-.15h.46c.47 0 .75.14.75.57a.46.46 0 0 1-.34.48l.39.67a.43.43 0 0 0 0 .05.06.06 0 0 1-.05.07zm-.66-2.15a1.25 1.25 0 1 0 1.24 1.25 1.24 1.24 0 0 0-1.24-1.25zm0 2.75a1.5 1.5 0 0 1-1.5-1.5 1.5 1.5 0 1 1 1.5 1.5z"/><path d="M65.71 12.5C62.61-2.77 33.29-3.74 14.39 7.89v1.29c18.88-9.81 45.66-9.75 48.1 4.31.81 4.65-1.78 9.5-6.41 12.29v3.65c5.57-2.07 11.29-8.75 9.63-16.93zM31.35 39.22c-13 1.22-26.63-.7-28.54-11-.93-5.08 1.36-10.47 4.4-13.81v-1.79C1.74 17.47-1.23 23.6.48 30.85c2.18 9.3 13.85 14.57 31.66 12.82 7-.7 16.26-3 22.67-6.54v-5.06c-5.82 3.5-15.44 6.4-23.46 7.15z"/><path d="M54 11h-3v15.38c0 1.8.76 3.37 3 3.62V11m-41 5h-3v10.29c0 1.85.76 3.46 3 3.71V16m-3-2h3v-3h-3zm24 16a3.67 3.67 0 0 1-4-3.82V13h3.42v3.64H36v2.74h-2.58V26a1.06 1.06 0 0 0 1.19 1.21H36V30h-2m9.16-11.16a2.58 2.58 0 0 0-2.43 1.42 3.65 3.65 0 0 0-.33 1.47h5.23c-.09-1.47-.75-2.89-2.49-2.89zm-2.76 5.23a2.83 2.83 0 0 0 3 3 3.82 3.82 0 0 0 3.12-1.29l2.09 2A6.63 6.63 0 0 1 43.37 30C40.12 30 37 28.21 37 23c0-4.47 2.72-7 6.29-7S49 19 49 22.83v1.24zm-18.2-5.41c1 0 1.41.47 1.41 1.25V29H27v-9.11A3.65 3.65 0 0 0 23 16h-7v13h3.39V18.66h2.81m35.59-6.55c0-.18-.1-.24-.35-.24h-.23v.52h.23c.25 0 .35-.08.35-.25zm.37 1.29h-.28a.08.08 0 0 1-.06 0l-.38-.65h-.17v.65a.07.07 0 0 1-.07.07h-.3s-.06 0-.06-.07v-1.69c0-.1 0-.14.11-.15h.46c.47 0 .75.14.75.57a.46.46 0 0 1-.34.48l.39.67a.43.43 0 0 0 0 .05.06.06 0 0 1-.05.07zm-.66-2.15a1.25 1.25 0 1 0 1.24 1.25 1.24 1.24 0 0 0-1.24-1.25zm0 2.75a1.5 1.5 0 0 1-1.5-1.5 1.5 1.5 0 1 1 1.5 1.5z"/></g></svg>